%TF.GenerationSoftware,KiCad,Pcbnew,8.0.6*%
%TF.CreationDate,2025-02-24T21:09:14+02:00*%
%TF.ProjectId,Amplicator_1,416d706c-6963-4617-946f-725f312e6b69,rev?*%
%TF.SameCoordinates,Original*%
%TF.FileFunction,Copper,L1,Top*%
%TF.FilePolarity,Positive*%
%FSLAX46Y46*%
G04 Gerber Fmt 4.6, Leading zero omitted, Abs format (unit mm)*
G04 Created by KiCad (PCBNEW 8.0.6) date 2025-02-24 21:09:14*
%MOMM*%
%LPD*%
G01*
G04 APERTURE LIST*
G04 Aperture macros list*
%AMRoundRect*
0 Rectangle with rounded corners*
0 $1 Rounding radius*
0 $2 $3 $4 $5 $6 $7 $8 $9 X,Y pos of 4 corners*
0 Add a 4 corners polygon primitive as box body*
4,1,4,$2,$3,$4,$5,$6,$7,$8,$9,$2,$3,0*
0 Add four circle primitives for the rounded corners*
1,1,$1+$1,$2,$3*
1,1,$1+$1,$4,$5*
1,1,$1+$1,$6,$7*
1,1,$1+$1,$8,$9*
0 Add four rect primitives between the rounded corners*
20,1,$1+$1,$2,$3,$4,$5,0*
20,1,$1+$1,$4,$5,$6,$7,0*
20,1,$1+$1,$6,$7,$8,$9,0*
20,1,$1+$1,$8,$9,$2,$3,0*%
G04 Aperture macros list end*
%TA.AperFunction,ComponentPad*%
%ADD10C,1.400000*%
%TD*%
%TA.AperFunction,ComponentPad*%
%ADD11O,1.400000X1.400000*%
%TD*%
%TA.AperFunction,ComponentPad*%
%ADD12RoundRect,0.250000X-1.550000X0.650000X-1.550000X-0.650000X1.550000X-0.650000X1.550000X0.650000X0*%
%TD*%
%TA.AperFunction,ComponentPad*%
%ADD13O,3.600000X1.800000*%
%TD*%
%TA.AperFunction,ComponentPad*%
%ADD14C,2.000000*%
%TD*%
%TA.AperFunction,ComponentPad*%
%ADD15R,1.600000X1.600000*%
%TD*%
%TA.AperFunction,ComponentPad*%
%ADD16C,1.600000*%
%TD*%
%TA.AperFunction,ComponentPad*%
%ADD17C,1.440000*%
%TD*%
%TA.AperFunction,ComponentPad*%
%ADD18R,1.500000X1.500000*%
%TD*%
%TA.AperFunction,ComponentPad*%
%ADD19C,1.500000*%
%TD*%
%TA.AperFunction,SMDPad,CuDef*%
%ADD20RoundRect,0.150000X-0.150000X0.825000X-0.150000X-0.825000X0.150000X-0.825000X0.150000X0.825000X0*%
%TD*%
%TA.AperFunction,ComponentPad*%
%ADD21O,1.600000X1.600000*%
%TD*%
%TA.AperFunction,SMDPad,CuDef*%
%ADD22RoundRect,0.150000X-0.825000X-0.150000X0.825000X-0.150000X0.825000X0.150000X-0.825000X0.150000X0*%
%TD*%
%TA.AperFunction,SMDPad,CuDef*%
%ADD23R,1.200000X2.500000*%
%TD*%
%TA.AperFunction,ViaPad*%
%ADD24C,0.600000*%
%TD*%
%TA.AperFunction,Conductor*%
%ADD25C,0.500000*%
%TD*%
%TA.AperFunction,Conductor*%
%ADD26C,0.200000*%
%TD*%
%TA.AperFunction,Conductor*%
%ADD27C,0.300000*%
%TD*%
G04 APERTURE END LIST*
D10*
%TO.P,R10,1*%
%TO.N,Net-(U4D-+)*%
X145796000Y-135890000D03*
D11*
%TO.P,R10,2*%
%TO.N,GND*%
X145796000Y-130810000D03*
%TD*%
D10*
%TO.P,R9,1*%
%TO.N,Net-(U4C-+)*%
X143383000Y-137541000D03*
D11*
%TO.P,R9,2*%
%TO.N,GND*%
X143383000Y-132461000D03*
%TD*%
D12*
%TO.P,J3,1,Pin_1*%
%TO.N,GND*%
X56145500Y-128452000D03*
D13*
%TO.P,J3,2,Pin_2*%
%TO.N,12V*%
X56145500Y-133532000D03*
%TD*%
D14*
%TO.P,C5,1*%
%TO.N,GND*%
X118531000Y-135001000D03*
%TO.P,C5,2*%
%TO.N,12V*%
X123531000Y-135001000D03*
%TD*%
%TO.P,C4,1*%
%TO.N,GND*%
X89027000Y-96734000D03*
%TO.P,C4,2*%
%TO.N,+5V*%
X89027000Y-91734000D03*
%TD*%
%TO.P,C3,1*%
%TO.N,12V*%
X60579000Y-133564000D03*
%TO.P,C3,2*%
%TO.N,GND*%
X60579000Y-128564000D03*
%TD*%
D15*
%TO.P,C2,1*%
%TO.N,Net-(U2-OUT+)*%
X95695888Y-88265000D03*
D16*
%TO.P,C2,2*%
%TO.N,/O4*%
X98195888Y-88265000D03*
%TD*%
D15*
%TO.P,C11,1*%
%TO.N,Net-(Q3-C)*%
X80455888Y-117475000D03*
D16*
%TO.P,C11,2*%
%TO.N,/O1*%
X82955888Y-117475000D03*
%TD*%
D17*
%TO.P,RV3,1,1*%
%TO.N,Net-(R3-Pad2)*%
X135434000Y-119776000D03*
%TO.P,RV3,2,2*%
%TO.N,Net-(C8-Pad1)*%
X135434000Y-122316000D03*
%TO.P,RV3,3,3*%
X135434000Y-124856000D03*
%TD*%
D10*
%TO.P,R1,1*%
%TO.N,Net-(U4A--)*%
X129211000Y-124460000D03*
D11*
%TO.P,R1,2*%
%TO.N,Net-(C7-Pad1)*%
X129211000Y-119380000D03*
%TD*%
D10*
%TO.P,R26,1*%
%TO.N,12V*%
X64259563Y-120023000D03*
D11*
%TO.P,R26,2*%
%TO.N,Net-(Q3-C)*%
X69339563Y-120023000D03*
%TD*%
D15*
%TO.P,C8,1*%
%TO.N,Net-(C8-Pad1)*%
X141403000Y-121681000D03*
D16*
%TO.P,C8,2*%
%TO.N,/O3*%
X141403000Y-119181000D03*
%TD*%
D10*
%TO.P,R2,1*%
%TO.N,Net-(U4B-+)*%
X123496000Y-105806000D03*
D11*
%TO.P,R2,2*%
%TO.N,Net-(Q1-E)*%
X128576000Y-105806000D03*
%TD*%
D15*
%TO.P,C7,1*%
%TO.N,Net-(C7-Pad1)*%
X129338000Y-116663112D03*
D16*
%TO.P,C7,2*%
%TO.N,GND*%
X129338000Y-114163112D03*
%TD*%
D18*
%TO.P,Q1,1,C*%
%TO.N,GND*%
X140060000Y-132842000D03*
D19*
%TO.P,Q1,2,B*%
%TO.N,Net-(Q1-B)*%
X140060000Y-130302000D03*
%TO.P,Q1,3,E*%
%TO.N,Net-(Q1-E)*%
X140060000Y-127762000D03*
%TD*%
D15*
%TO.P,C9,1*%
%TO.N,/Rr2*%
X120829000Y-141366000D03*
D16*
%TO.P,C9,2*%
%TO.N,Net-(U4A-+)*%
X123329000Y-141366000D03*
%TD*%
D20*
%TO.P,U4,1*%
%TO.N,Net-(C8-Pad1)*%
X136004112Y-127715000D03*
%TO.P,U4,2,-*%
%TO.N,Net-(U4A--)*%
X134734112Y-127715000D03*
%TO.P,U4,3,+*%
%TO.N,Net-(U4A-+)*%
X133464112Y-127715000D03*
%TO.P,U4,4,V+*%
%TO.N,12V*%
X132194112Y-127715000D03*
%TO.P,U4,5,+*%
%TO.N,Net-(U4B-+)*%
X130924112Y-127715000D03*
%TO.P,U4,6,-*%
%TO.N,/Rr3*%
X129654112Y-127715000D03*
%TO.P,U4,7*%
%TO.N,Net-(Q1-B)*%
X128384112Y-127715000D03*
%TO.P,U4,8*%
%TO.N,Net-(U4C--)*%
X128384112Y-132665000D03*
%TO.P,U4,9,-*%
X129654112Y-132665000D03*
%TO.P,U4,10,+*%
%TO.N,Net-(U4C-+)*%
X130924112Y-132665000D03*
%TO.P,U4,11,V-*%
%TO.N,GND*%
X132194112Y-132665000D03*
%TO.P,U4,12,+*%
%TO.N,Net-(U4D-+)*%
X133464112Y-132665000D03*
%TO.P,U4,13,-*%
%TO.N,Net-(U4D--)*%
X134734112Y-132665000D03*
%TO.P,U4,14*%
X136004112Y-132665000D03*
%TD*%
D10*
%TO.P,R4,1*%
%TO.N,GND*%
X128449000Y-103393000D03*
D11*
%TO.P,R4,2*%
%TO.N,Net-(U4B-+)*%
X123369000Y-103393000D03*
%TD*%
D15*
%TO.P,C1,1*%
%TO.N,Net-(Q1-E)*%
X133974888Y-113426000D03*
D16*
%TO.P,C1,2*%
%TO.N,/O2*%
X136474888Y-113426000D03*
%TD*%
D18*
%TO.P,Q4,1,C*%
%TO.N,Net-(Q3-C)*%
X77343000Y-117729000D03*
D19*
%TO.P,Q4,2,B*%
%TO.N,Net-(Q4-B)*%
X74803000Y-117729000D03*
%TO.P,Q4,3,E*%
%TO.N,Net-(Q3-B)*%
X72263000Y-117729000D03*
%TD*%
D15*
%TO.P,SW3,1*%
%TO.N,Net-(J2-PadR1)*%
X129794000Y-95885000D03*
D21*
%TO.P,SW3,2*%
X129794000Y-93345000D03*
%TO.P,SW3,3*%
X129794000Y-90805000D03*
%TO.P,SW3,4*%
X129794000Y-88265000D03*
%TO.P,SW3,5*%
%TO.N,/O4*%
X122174000Y-88265000D03*
%TO.P,SW3,6*%
%TO.N,/O3*%
X122174000Y-90805000D03*
%TO.P,SW3,7*%
%TO.N,/O2*%
X122174000Y-93345000D03*
%TO.P,SW3,8*%
%TO.N,/O1*%
X122174000Y-95885000D03*
%TD*%
D10*
%TO.P,R6,1*%
%TO.N,12V*%
X126479112Y-138039000D03*
D11*
%TO.P,R6,2*%
%TO.N,Net-(C10-Pad1)*%
X131559112Y-138039000D03*
%TD*%
D10*
%TO.P,R27,1*%
%TO.N,Net-(Q4-B)*%
X69342000Y-115443000D03*
D11*
%TO.P,R27,2*%
%TO.N,GND*%
X64262000Y-115443000D03*
%TD*%
D18*
%TO.P,Q2,1,C*%
%TO.N,12V*%
X123496000Y-109976000D03*
D19*
%TO.P,Q2,2,B*%
%TO.N,Net-(Q1-B)*%
X126036000Y-109976000D03*
%TO.P,Q2,3,E*%
%TO.N,Net-(Q1-E)*%
X128576000Y-109976000D03*
%TD*%
D18*
%TO.P,Q3,1,C*%
%TO.N,Net-(Q3-C)*%
X77343000Y-123519000D03*
D19*
%TO.P,Q3,2,B*%
%TO.N,Net-(Q3-B)*%
X74803000Y-123519000D03*
%TO.P,Q3,3,E*%
%TO.N,Net-(Q3-E)*%
X72263000Y-123519000D03*
%TD*%
D10*
%TO.P,R25,1*%
%TO.N,Net-(Q4-B)*%
X69342000Y-117729000D03*
D11*
%TO.P,R25,2*%
%TO.N,12V*%
X64262000Y-117729000D03*
%TD*%
D22*
%TO.P,U2,1,~{SD}*%
%TO.N,+5V*%
X80710001Y-89662000D03*
%TO.P,U2,2,NC*%
%TO.N,unconnected-(U2-NC-Pad2)*%
X80710001Y-90932000D03*
%TO.P,U2,3,IN+*%
%TO.N,Net-(U2-IN+)*%
X80710001Y-92202000D03*
%TO.P,U2,4,IN-*%
%TO.N,Net-(U2-IN-)*%
X80710001Y-93472000D03*
%TO.P,U2,5,OUT+*%
%TO.N,Net-(U2-OUT+)*%
X85660001Y-93472000D03*
%TO.P,U2,6,VDD*%
%TO.N,+5V*%
X85660001Y-92202000D03*
%TO.P,U2,7,GND*%
%TO.N,GND*%
X85660001Y-90932000D03*
%TO.P,U2,8,OUT-*%
%TO.N,unconnected-(U2-OUT--Pad8)*%
X85660001Y-89662000D03*
%TD*%
D15*
%TO.P,SW2,1*%
%TO.N,Net-(J1-PadR1)*%
X57277000Y-93472000D03*
D21*
%TO.P,SW2,2*%
X57277000Y-96012000D03*
%TO.P,SW2,3*%
X57277000Y-98552000D03*
%TO.P,SW2,4*%
X57277000Y-101092000D03*
%TO.P,SW2,5*%
%TO.N,/Rr4*%
X64897000Y-101092000D03*
%TO.P,SW2,6*%
%TO.N,/Rr3*%
X64897000Y-98552000D03*
%TO.P,SW2,7*%
%TO.N,/Rr2*%
X64897000Y-96012000D03*
%TO.P,SW2,8*%
%TO.N,/Rr1*%
X64897000Y-93472000D03*
%TD*%
D10*
%TO.P,R3,1*%
%TO.N,Net-(U4A--)*%
X131497000Y-124460000D03*
D11*
%TO.P,R3,2*%
%TO.N,Net-(R3-Pad2)*%
X131497000Y-119380000D03*
%TD*%
D10*
%TO.P,R28,1*%
%TO.N,Net-(Q3-E)*%
X72263000Y-127381000D03*
D11*
%TO.P,R28,2*%
%TO.N,GND*%
X72263000Y-132461000D03*
%TD*%
D23*
%TO.P,J1,T*%
%TO.N,unconnected-(J1-PadT)*%
X57927000Y-110617000D03*
%TO.P,J1,S*%
%TO.N,unconnected-(J1-PadS)*%
X59027000Y-117117000D03*
%TO.P,J1,R2*%
%TO.N,GND*%
X50927000Y-110617000D03*
%TO.P,J1,R1*%
%TO.N,Net-(J1-PadR1)*%
X53927000Y-110617000D03*
%TD*%
D10*
%TO.P,R5,1*%
%TO.N,Net-(C10-Pad1)*%
X131813112Y-135651000D03*
D11*
%TO.P,R5,2*%
%TO.N,GND*%
X126733112Y-135651000D03*
%TD*%
D15*
%TO.P,C13,1*%
%TO.N,GND*%
X73851888Y-96774000D03*
D16*
%TO.P,C13,2*%
%TO.N,Net-(U2-IN-)*%
X76351888Y-96774000D03*
%TD*%
D15*
%TO.P,C10,1*%
%TO.N,Net-(C10-Pad1)*%
X134176888Y-138176000D03*
D16*
%TO.P,C10,2*%
%TO.N,GND*%
X136676888Y-138176000D03*
%TD*%
D23*
%TO.P,J2,R1*%
%TO.N,Net-(J2-PadR1)*%
X141374000Y-98881000D03*
%TO.P,J2,R2*%
%TO.N,GND*%
X144374000Y-98881000D03*
%TO.P,J2,S*%
%TO.N,unconnected-(J2-PadS)*%
X136274000Y-92381000D03*
%TO.P,J2,T*%
%TO.N,unconnected-(J2-PadT)*%
X137374000Y-98881000D03*
%TD*%
D15*
%TO.P,C18,1*%
%TO.N,/Rr4*%
X74930000Y-111316887D03*
D16*
%TO.P,C18,2*%
%TO.N,Net-(Q4-B)*%
X74930000Y-113816887D03*
%TD*%
D10*
%TO.P,R8,1*%
%TO.N,12V*%
X53467000Y-97282000D03*
D11*
%TO.P,R8,2*%
%TO.N,+5V*%
X53467000Y-92202000D03*
%TD*%
D10*
%TO.P,R7,1*%
%TO.N,Net-(U4A-+)*%
X126479112Y-141189000D03*
D11*
%TO.P,R7,2*%
%TO.N,Net-(C10-Pad1)*%
X131559112Y-141189000D03*
%TD*%
D15*
%TO.P,C12,1*%
%TO.N,/Rr1*%
X73724888Y-90297000D03*
D16*
%TO.P,C12,2*%
%TO.N,Net-(U2-IN+)*%
X76224888Y-90297000D03*
%TD*%
D24*
%TO.N,GND*%
X78359000Y-115697000D03*
X77089000Y-114427000D03*
X86106000Y-113665000D03*
X88392000Y-108585000D03*
X88392000Y-111633000D03*
%TO.N,12V*%
X93853000Y-109982000D03*
X131572000Y-129413000D03*
X129921000Y-131094000D03*
%TO.N,GND*%
X132588000Y-131445000D03*
%TO.N,12V*%
X59499500Y-107886500D03*
X56007000Y-106426000D03*
%TO.N,GND*%
X50927000Y-108712000D03*
X87249000Y-90932000D03*
X144272000Y-97663000D03*
%TO.N,Net-(U4A-+)*%
X133350000Y-129286000D03*
%TO.N,/Rr3*%
X120269000Y-129540000D03*
X123063000Y-129540000D03*
X127127000Y-129540000D03*
X90043000Y-115570000D03*
X86550500Y-112077500D03*
X129667000Y-129159000D03*
%TO.N,Net-(U4A-+)*%
X130302000Y-134747000D03*
%TD*%
D25*
%TO.N,+5V*%
X88559000Y-92202000D02*
X89027000Y-91734000D01*
X85660001Y-92202000D02*
X88559000Y-92202000D01*
D26*
%TO.N,Net-(J1-PadR1)*%
X57277000Y-102489000D02*
X57277000Y-101092000D01*
X58293000Y-103505000D02*
X57277000Y-102489000D01*
%TO.N,Net-(U4D--)*%
X134734112Y-132665000D02*
X136004112Y-132665000D01*
%TO.N,Net-(U4C--)*%
X128384112Y-132665000D02*
X129654112Y-132665000D01*
D25*
%TO.N,12V*%
X64259563Y-129883437D02*
X64259563Y-120023000D01*
X60579000Y-133564000D02*
X64259563Y-129883437D01*
D26*
X60547000Y-133532000D02*
X60579000Y-133564000D01*
D25*
X56145500Y-133532000D02*
X60547000Y-133532000D01*
D26*
%TO.N,Net-(U4D-+)*%
X133464112Y-133639999D02*
X133464112Y-132665000D01*
X134190113Y-134366000D02*
X133464112Y-133639999D01*
X145796000Y-135890000D02*
X144272000Y-134366000D01*
X144272000Y-134366000D02*
X134190113Y-134366000D01*
%TO.N,Net-(U4C-+)*%
X130924112Y-133639999D02*
X130924112Y-132665000D01*
X131777113Y-134493000D02*
X130924112Y-133639999D01*
X137287000Y-135128000D02*
X133604000Y-135128000D01*
X138430000Y-136271000D02*
X137287000Y-135128000D01*
X132969000Y-134493000D02*
X131777113Y-134493000D01*
X142113000Y-136271000D02*
X138430000Y-136271000D01*
X143383000Y-137541000D02*
X142113000Y-136271000D01*
X133604000Y-135128000D02*
X132969000Y-134493000D01*
D27*
%TO.N,Net-(Q1-B)*%
X129174000Y-130317000D02*
X128384112Y-129527112D01*
X131602239Y-130302000D02*
X131587239Y-130317000D01*
X140060000Y-130302000D02*
X131602239Y-130302000D01*
X131587239Y-130317000D02*
X129174000Y-130317000D01*
X128384112Y-129527112D02*
X128384112Y-127715000D01*
D25*
%TO.N,12V*%
X132194112Y-128790888D02*
X132194112Y-127715000D01*
X131572000Y-129413000D02*
X132194112Y-128790888D01*
D26*
%TO.N,GND*%
X132194112Y-131838888D02*
X132194112Y-132665000D01*
X132588000Y-131445000D02*
X132194112Y-131838888D01*
X144272000Y-98779000D02*
X144374000Y-98881000D01*
X144272000Y-97663000D02*
X144272000Y-98779000D01*
%TO.N,Net-(J2-PadR1)*%
X129794000Y-96774000D02*
X129794000Y-95885000D01*
X134366000Y-101346000D02*
X129794000Y-96774000D01*
X139827000Y-101346000D02*
X134366000Y-101346000D01*
X141323000Y-99850000D02*
X139827000Y-101346000D01*
X141323000Y-98932000D02*
X141323000Y-99850000D01*
X141374000Y-98881000D02*
X141323000Y-98932000D01*
D25*
%TO.N,+5V*%
X58420000Y-87249000D02*
X78297001Y-87249000D01*
%TO.N,12V*%
X56007000Y-106426000D02*
X54356000Y-106426000D01*
X54356000Y-106426000D02*
X53467000Y-105537000D01*
X53467000Y-105537000D02*
X53467000Y-97282000D01*
%TO.N,+5V*%
X53467000Y-92202000D02*
X58420000Y-87249000D01*
X78297001Y-87249000D02*
X80710001Y-89662000D01*
D26*
%TO.N,/O4*%
X98195888Y-88265000D02*
X122174000Y-88265000D01*
%TO.N,Net-(U2-OUT+)*%
X90424000Y-93472000D02*
X85660001Y-93472000D01*
X95631000Y-88265000D02*
X90424000Y-93472000D01*
X95695888Y-88265000D02*
X95631000Y-88265000D01*
D27*
%TO.N,Net-(U4B-+)*%
X130924112Y-126740001D02*
X130924112Y-127715000D01*
X130168111Y-125984000D02*
X130924112Y-126740001D01*
D26*
%TO.N,/Rr1*%
X70549888Y-93472000D02*
X73724888Y-90297000D01*
D25*
%TO.N,12V*%
X61976000Y-110363000D02*
X61976000Y-115443000D01*
X59499500Y-107886500D02*
X61976000Y-110363000D01*
X61976000Y-115443000D02*
X64262000Y-117729000D01*
D26*
%TO.N,GND*%
X78359000Y-115697000D02*
X77089000Y-114427000D01*
X86360000Y-113665000D02*
X86106000Y-113665000D01*
X88392000Y-111633000D02*
X86360000Y-113665000D01*
X88392000Y-108585000D02*
X88392000Y-111633000D01*
D27*
%TO.N,/Rr3*%
X78486000Y-104013000D02*
X86550500Y-112077500D01*
D26*
%TO.N,12V*%
X93859000Y-109976000D02*
X123496000Y-109976000D01*
X93853000Y-109982000D02*
X93859000Y-109976000D01*
D25*
X127605000Y-131094000D02*
X123569556Y-135129444D01*
X129921000Y-131094000D02*
X127605000Y-131094000D01*
X123569556Y-135129444D02*
X121972000Y-133531888D01*
X126479112Y-138039000D02*
X123569556Y-135129444D01*
D26*
%TO.N,/O1*%
X105677258Y-95885000D02*
X122174000Y-95885000D01*
X84087258Y-117475000D02*
X105677258Y-95885000D01*
X82955888Y-117475000D02*
X84087258Y-117475000D01*
%TO.N,/O3*%
X141403000Y-110034000D02*
X122174000Y-90805000D01*
X141403000Y-119181000D02*
X141403000Y-110034000D01*
%TO.N,/O2*%
X136474888Y-107645888D02*
X136474888Y-113426000D01*
X122174000Y-93345000D02*
X136474888Y-107645888D01*
%TO.N,Net-(Q1-E)*%
X137593000Y-117044112D02*
X137593000Y-125295000D01*
X137593000Y-125295000D02*
X140060000Y-127762000D01*
%TO.N,Net-(C10-Pad1)*%
X134039888Y-138039000D02*
X134176888Y-138176000D01*
X131559112Y-138039000D02*
X134039888Y-138039000D01*
D27*
%TO.N,Net-(U4B-+)*%
X128143000Y-125984000D02*
X130168111Y-125984000D01*
X127381000Y-125222000D02*
X128143000Y-125984000D01*
X127381000Y-109220000D02*
X127381000Y-125222000D01*
X123967000Y-105806000D02*
X127381000Y-109220000D01*
X123496000Y-105806000D02*
X123967000Y-105806000D01*
%TO.N,/Rr3*%
X127127000Y-129540000D02*
X123063000Y-129540000D01*
X129654112Y-129146112D02*
X129654112Y-127715000D01*
X129667000Y-129159000D02*
X129654112Y-129146112D01*
%TO.N,Net-(U4A-+)*%
X133464112Y-129171888D02*
X133464112Y-127715000D01*
X133350000Y-129286000D02*
X133464112Y-129171888D01*
%TO.N,Net-(U4A--)*%
X134734112Y-127103163D02*
X134734112Y-127715000D01*
X132090949Y-124460000D02*
X134734112Y-127103163D01*
X129211000Y-124460000D02*
X132090949Y-124460000D01*
%TO.N,Net-(Q1-E)*%
X133746000Y-113426000D02*
X133974888Y-113426000D01*
X130317000Y-109997000D02*
X133746000Y-113426000D01*
X128576000Y-109976000D02*
X128597000Y-109997000D01*
X128597000Y-109997000D02*
X130317000Y-109997000D01*
%TO.N,Net-(Q1-B)*%
X126036000Y-126417000D02*
X126036000Y-109976000D01*
X127334000Y-127715000D02*
X126036000Y-126417000D01*
X128384112Y-127715000D02*
X127334000Y-127715000D01*
D25*
%TO.N,12V*%
X123496000Y-110057000D02*
X123496000Y-109976000D01*
X121539000Y-112014000D02*
X123496000Y-110057000D01*
X121539000Y-133098888D02*
X121539000Y-112014000D01*
X121972000Y-133531888D02*
X121539000Y-133098888D01*
D27*
%TO.N,/Rr3*%
X104013000Y-129540000D02*
X90043000Y-115570000D01*
X120269000Y-129540000D02*
X104013000Y-129540000D01*
D26*
%TO.N,/Rr2*%
X62865000Y-98044000D02*
X64897000Y-96012000D01*
X62865000Y-103759000D02*
X62865000Y-98044000D01*
X67183000Y-108077000D02*
X62865000Y-103759000D01*
X67183000Y-124587000D02*
X67183000Y-108077000D01*
X83962000Y-141366000D02*
X67183000Y-124587000D01*
X120829000Y-141366000D02*
X83962000Y-141366000D01*
%TO.N,Net-(J2-PadR1)*%
X129794000Y-88265000D02*
X129794000Y-95885000D01*
%TO.N,Net-(Q3-C)*%
X77343000Y-117729000D02*
X77343000Y-123519000D01*
X80201888Y-117729000D02*
X80455888Y-117475000D01*
X77343000Y-117729000D02*
X80201888Y-117729000D01*
%TO.N,12V*%
X64259563Y-117731437D02*
X64262000Y-117729000D01*
X64259563Y-120023000D02*
X64259563Y-117731437D01*
%TO.N,Net-(U4A-+)*%
X130254112Y-134794888D02*
X130302000Y-134747000D01*
X130254112Y-137414000D02*
X130254112Y-134794888D01*
%TO.N,Net-(Q3-E)*%
X72263000Y-123519000D02*
X72263000Y-127381000D01*
%TO.N,Net-(Q3-B)*%
X72263000Y-120979000D02*
X74803000Y-123519000D01*
X72263000Y-117729000D02*
X72263000Y-120979000D01*
%TO.N,Net-(Q4-B)*%
X73303887Y-115443000D02*
X74930000Y-113816887D01*
X69342000Y-115443000D02*
X73303887Y-115443000D01*
X69342000Y-117729000D02*
X69342000Y-115443000D01*
X74930000Y-117602000D02*
X74803000Y-117729000D01*
X74930000Y-113816887D02*
X74930000Y-117602000D01*
%TO.N,GND*%
X50927000Y-110617000D02*
X50927000Y-108712000D01*
D25*
%TO.N,+5V*%
X81661000Y-89662000D02*
X80710001Y-89662000D01*
X84201000Y-92202000D02*
X81661000Y-89662000D01*
X85660001Y-92202000D02*
X84201000Y-92202000D01*
%TO.N,GND*%
X85660001Y-90932000D02*
X87249000Y-90932000D01*
D26*
%TO.N,/Rr1*%
X64897000Y-93472000D02*
X70549888Y-93472000D01*
%TO.N,/Rr3*%
X78486000Y-104013000D02*
X70358000Y-104013000D01*
X70358000Y-104013000D02*
X64897000Y-98552000D01*
%TO.N,/Rr4*%
X74676000Y-110871000D02*
X74676000Y-110998000D01*
X64897000Y-101092000D02*
X74676000Y-110871000D01*
%TO.N,Net-(J1-PadR1)*%
X58293000Y-106251000D02*
X58293000Y-103505000D01*
X53927000Y-110617000D02*
X58293000Y-106251000D01*
D27*
%TO.N,Net-(U2-IN-)*%
X76351888Y-96774000D02*
X79653888Y-93472000D01*
X79653888Y-93472000D02*
X80710001Y-93472000D01*
%TO.N,Net-(U2-IN+)*%
X78129888Y-92202000D02*
X80710001Y-92202000D01*
X76224888Y-90297000D02*
X78129888Y-92202000D01*
%TO.N,Net-(C7-Pad1)*%
X129211000Y-116790112D02*
X129338000Y-116663112D01*
X129211000Y-119776000D02*
X129211000Y-116790112D01*
%TO.N,Net-(C8-Pad1)*%
X135434000Y-127144888D02*
X136004112Y-127715000D01*
X140768000Y-122316000D02*
X141403000Y-121681000D01*
X135434000Y-124856000D02*
X135434000Y-122316000D01*
X135434000Y-124856000D02*
X135434000Y-127144888D01*
%TO.N,Net-(C10-Pad1)*%
X131559112Y-141189000D02*
X131559112Y-138039000D01*
X131813112Y-137785000D02*
X131559112Y-138039000D01*
X131813112Y-135651000D02*
X131813112Y-137785000D01*
%TO.N,Net-(R3-Pad2)*%
X131497000Y-119776000D02*
X135434000Y-119776000D01*
D25*
%TO.N,12V*%
X121972000Y-133531888D02*
X121663112Y-133223000D01*
D27*
%TO.N,Net-(J1-PadR1)*%
X57277000Y-93472000D02*
X57277000Y-101092000D01*
%TO.N,Net-(Q1-E)*%
X137593000Y-117044112D02*
X133974888Y-113426000D01*
X128576000Y-105806000D02*
X128576000Y-109976000D01*
X128449000Y-105933000D02*
X128576000Y-105806000D01*
%TO.N,Net-(U4A-+)*%
X126302112Y-141366000D02*
X126479112Y-141189000D01*
X126479112Y-141189000D02*
X123506000Y-141189000D01*
X123506000Y-141189000D02*
X123329000Y-141366000D01*
X126479112Y-141189000D02*
X130254112Y-137414000D01*
%TO.N,Net-(U4B-+)*%
X123496000Y-105806000D02*
X123496000Y-103520000D01*
X123496000Y-103520000D02*
X123369000Y-103393000D01*
%TD*%
M02*
